<?xml version="1.0" standalone="no"?><!DOCTYPE svg PUBLIC "-//W3C//DTD SVG 1.1//EN" "http://www.w3.org/Graphics/SVG/1.1/DTD/svg11.dtd"><svg t="1752839658489" class="icon" viewBox="0 0 1024 1024" version="1.1" xmlns="http://www.w3.org/2000/svg" p-id="1477" width="32" height="32" xmlns:xlink="http://www.w3.org/1999/xlink"><path d="M841.984 576.555A18.816 18.816 0 0 1 828.8 554.58c41.941-200.448-75.605-402.346-269.227-456.021-199.509-55.125-405.333 67.285-459.52 273.11v0.98a460.587 460.587 0 0 0 62.464 371.2 439.893 439.893 0 0 0 208.768 167.766c236.544 89.301 491.179-44.373 566.272-283.35a23.04 23.04 0 0 0-15.573-29.269l-80-22.442z m-393.13 194.133c-72.705-20.01-133.163-68.267-170.753-135.125a298.112 298.112 0 0 1-28.288-219.99C282.027 293.12 404.48 220.501 523.52 253.141c112.64 31.232 182.4 146.347 161.92 262.912a21.205 21.205 0 0 0 15.104 24.406l75.605 20.949a17.493 17.493 0 0 1 11.734 22.955c-47.36 142.933-195.115 225.834-338.987 186.325z" fill="#6666FF" p-id="1478"></path></svg>