<?xml version="1.0" standalone="no"?><!DOCTYPE svg PUBLIC "-//W3C//DTD SVG 1.1//EN" "http://www.w3.org/Graphics/SVG/1.1/DTD/svg11.dtd"><svg t="1756210933784" class="icon" viewBox="0 0 1024 1024" version="1.1" xmlns="http://www.w3.org/2000/svg" p-id="1926" width="32" height="32" xmlns:xlink="http://www.w3.org/1999/xlink"><path d="M246.272 420.864c-2.56-14.848-3.584-29.696-3.584-45.056 0-148.48 120.32-269.312 269.312-269.312s269.312 120.32 269.312 269.312c0 14.848-1.024 30.208-3.584 45.056 136.192 0.512 246.784 111.616 246.784 248.32 0 137.216-111.104 248.32-248.32 248.32-69.12 0-132.096-28.16-176.64-74.24-23.552-24.064-23.552-62.976 0.512-86.528 24.064-24.064 62.976-24.064 87.04 0 0.512 0.512 1.536 1.536 2.048 2.56 22.528 22.016 53.248 35.328 87.04 35.328 69.12 0 124.928-55.808 124.928-124.928s-55.808-124.928-124.928-124.928c-31.744 0-60.416 11.776-82.944 31.232l-2.048 2.048c-2.56 2.048-4.608 4.608-7.168 7.168l-4.608 4.608-253.44 253.44c-45.056 46.08-108.032 74.752-177.152 74.752C111.104 917.504 0 805.888 0 669.184 0 532.48 110.08 421.888 246.272 420.864z m2.048 373.248c69.12 0 124.928-55.808 124.928-124.928S317.44 543.744 248.32 543.744s-124.928 55.808-124.928 124.928c0 69.632 55.808 125.44 124.928 125.44z m263.68-272.384c80.384 0 145.92-65.536 145.92-145.92S592.384 229.888 512 229.888 366.08 295.424 366.08 375.808s65.024 145.92 145.92 145.92z" fill="#06A7FF" p-id="1927"></path><path d="M656.896 391.168c-0.512-2.56-0.512-4.608-0.512-7.168 0-34.304 27.648-61.952 61.952-61.952s61.952 27.648 61.952 61.952c0 2.56 0 5.12-0.512 7.68-8.192 140.8-125.44 252.928-268.8 252.928S250.88 532.992 242.176 391.68c-0.512-2.56-0.512-5.12-0.512-7.68 0-34.304 27.648-61.952 61.952-61.952S365.568 349.696 365.568 384c0 2.56 0 4.608-0.512 7.168 7.68 73.216 69.632 130.56 144.896 130.56s139.264-57.344 146.944-130.56z" fill="#FF436A" p-id="1928"></path></svg>